<?xml version="1.0" standalone="no"?><!DOCTYPE svg PUBLIC "-//W3C//DTD SVG 1.1//EN" "http://www.w3.org/Graphics/SVG/1.1/DTD/svg11.dtd"><svg t="1594999992554" class="icon" viewBox="0 0 1024 1024" version="1.1" xmlns="http://www.w3.org/2000/svg" p-id="5877" xmlns:xlink="http://www.w3.org/1999/xlink" width="200" height="200"><defs><style type="text/css"></style></defs><path d="M769.807059 1017.514667H269.211608c-55.496784 0-100.352-45.056-100.352-100.793726V114.386824c0-55.717647 44.855216-100.793725 100.352-100.793726H769.807059c55.496784 0 100.352 45.076078 100.352 100.793726v802.334117c0 55.737725-44.855216 100.793725-100.352 100.793726z" fill="#161616" p-id="5878"></path><path d="M764.586667 319.889569H274.432a32.627451 32.627451 0 0 1-32.486902-32.627451V118.261961c0-18.070588 14.697412-32.627451 32.486902-32.627451H764.586667c17.990275 0 32.486902 14.757647 32.486902 32.627451v168.980078c0.200784 17.869804-14.496627 32.627451-32.486902 32.627451z" fill="#4F4F4F" p-id="5879"></path><path d="M314.066824 533.925647a72.483137 72.483137 0 0 1-72.302432-72.643765 72.483137 72.483137 0 0 1 72.302432-72.643764 72.483137 72.483137 0 0 1 72.322509 72.643764c-0.200784 40.19702-32.486902 72.643765-72.322509 72.643765z m205.542901 0a72.483137 72.483137 0 0 1-72.322509-72.643765 72.483137 72.483137 0 0 1 72.322509-72.643764 72.483137 72.483137 0 0 1 72.32251 72.643764c-0.200784 40.19702-32.486902 72.643765-72.32251 72.643765z" fill="#CFCFCD" p-id="5880"></path><path d="M724.951843 533.925647a72.483137 72.483137 0 0 1-72.32251-72.643765 72.483137 72.483137 0 0 1 72.32251-72.643764 72.483137 72.483137 0 0 1 72.32251 72.643764 72.362667 72.362667 0 0 1-72.32251 72.643765z" fill="#FF9528" p-id="5881"></path><path d="M314.066824 741.335843a72.483137 72.483137 0 0 1-72.302432-72.623686 72.483137 72.483137 0 0 1 72.302432-72.643765 72.483137 72.483137 0 0 1 72.322509 72.643765c-0.200784 40.19702-32.486902 72.623686-72.322509 72.623686z m205.542901 0a72.483137 72.483137 0 0 1-72.322509-72.623686 72.483137 72.483137 0 0 1 72.322509-72.643765 72.483137 72.483137 0 0 1 72.32251 72.643765c-0.200784 40.19702-32.486902 72.623686-72.32251 72.623686z" fill="#CFCFCD" p-id="5882"></path><path d="M724.951843 741.335843a72.483137 72.483137 0 0 1-72.32251-72.623686 72.483137 72.483137 0 0 1 72.32251-72.643765 72.483137 72.483137 0 0 1 72.32251 72.643765 72.362667 72.362667 0 0 1-72.32251 72.623686z" fill="#FF9528" p-id="5883"></path><path d="M519.609725 948.766118H314.066824a72.483137 72.483137 0 0 1-72.302432-72.643765 72.483137 72.483137 0 0 1 72.302432-72.623686H519.629804a72.483137 72.483137 0 0 1 72.32251 72.623686c-0.200784 40.016314-32.486902 72.643765-72.32251 72.643765z" fill="#CFCFCD" p-id="5884"></path><path d="M724.951843 948.766118a72.483137 72.483137 0 0 1-72.32251-72.643765 72.483137 72.483137 0 0 1 72.32251-72.623686 72.483137 72.483137 0 0 1 72.32251 72.623686 72.483137 72.483137 0 0 1-72.32251 72.643765z" fill="#FF9528" p-id="5885"></path></svg>