<?xml version="1.0" standalone="no"?><!DOCTYPE svg PUBLIC "-//W3C//DTD SVG 1.1//EN" "http://www.w3.org/Graphics/SVG/1.1/DTD/svg11.dtd"><svg t="1603963508136" class="icon" viewBox="0 0 1024 1024" version="1.1" xmlns="http://www.w3.org/2000/svg" p-id="635" xmlns:xlink="http://www.w3.org/1999/xlink" width="200" height="200"><defs><style type="text/css"></style></defs><path d="M308.224 466.432c-11.77600001 0-23.552 4.608-32.256 13.312-17.92 17.92-17.92 46.592 0 64.512L686.08 954.88c17.92 17.92 46.592 17.92 64.512 0s17.92-46.592 0-64.512l-410.62400001-410.624c-8.704-9.216-20.48-13.312-31.74399999-13.312z" p-id="636"></path><path d="M718.336 55.808c-11.77600001 0-23.552 4.608-32.256 13.312l-410.624 410.62400001c-17.92 17.92-17.92 46.592 0 64.51199998s46.592 17.92 64.51199999 1e-8L750.592 133.632c17.92-17.92 17.92-46.592 0-64.512-8.704-8.704-20.48-13.312-32.256-13.312z" p-id="637"></path></svg>