<?xml version="1.0" standalone="no"?><!DOCTYPE svg PUBLIC "-//W3C//DTD SVG 1.1//EN" "http://www.w3.org/Graphics/SVG/1.1/DTD/svg11.dtd"><svg t="1603108211791" class="icon" viewBox="0 0 1024 1024" version="1.1" xmlns="http://www.w3.org/2000/svg" p-id="1117" xmlns:xlink="http://www.w3.org/1999/xlink" width="200" height="200"><defs><style type="text/css"></style></defs><path d="M715.776 557.568c11.776 0 23.552-4.608 32.256-13.312 17.92-17.92 17.92-46.592 0-64.512L337.92 69.12c-17.92-17.92-46.592-17.92-64.512 0s-17.92 46.592 0 64.512l410.624 410.624c8.704 9.216 20.48 13.312 31.744 13.312z" fill="#8C8C8C" p-id="1118"></path><path d="M305.664 968.192c11.776 0 23.552-4.608 32.256-13.312l410.624-410.624c17.92-17.92 17.92-46.592 0-64.512s-46.592-17.92-64.512 0l-410.624 410.624c-17.92 17.92-17.92 46.592 0 64.512 8.704 8.704 20.48 13.312 32.256 13.312z" fill="#8C8C8C" p-id="1119"></path></svg>