<?xml version="1.0" standalone="no"?><!DOCTYPE svg PUBLIC "-//W3C//DTD SVG 1.1//EN" "http://www.w3.org/Graphics/SVG/1.1/DTD/svg11.dtd"><svg t="1594999977847" class="icon" viewBox="0 0 1446 1024" version="1.1" xmlns="http://www.w3.org/2000/svg" p-id="5631" xmlns:xlink="http://www.w3.org/1999/xlink" width="282.421875" height="200"><defs><style type="text/css"></style></defs><path d="M959.468 787.749h-483.913c-37.014 0-67.126-30.116-67.126-67.126v-599.546c0-37.014 30.112-67.126 67.126-67.126h483.89c37.014 0 67.126 30.112 67.126 67.126v599.539c0 37.010-30.103 67.123-67.103 67.134zM475.553 92.574c-15.718 0-28.503 12.786-28.503 28.503v599.547c0 15.718 12.786 28.503 28.503 28.503h483.904c15.709-0.007 28.49-12.796 28.49-28.512v-599.539c0-15.717-12.786-28.503-28.503-28.503h-483.89z" p-id="5632"></path><path d="" p-id="5633"></path><path d="M1047.786 895.167h-403.262c-10.666 0-19.31-8.647-19.31-19.31 0-10.666 8.645-19.31 19.31-19.31h403.262c28.265 0 51.257-22.998 51.257-51.276v-540.545c0-10.666 8.645-19.31 19.31-19.31s19.31 8.645 19.31 19.31v540.543c0 49.569-40.317 89.898-89.876 89.898z" p-id="5634"></path><path d="M826.079 261.382h-294.705c-10.666 0-19.31-8.647-19.31-19.31s8.645-19.31 19.31-19.31h294.705c10.665 0 19.31 8.647 19.31 19.31s-8.647 19.31-19.31 19.31z" p-id="5635"></path><path d="M903.625 440.167h-372.251c-10.666 0-19.31-8.647-19.31-19.31 0-10.666 8.645-19.31 19.31-19.31h372.251c10.665 0 19.31 8.645 19.31 19.31 0.001 10.665-8.645 19.31-19.31 19.31z" p-id="5636"></path><path d="M903.625 618.118h-372.251c-10.666 0-19.31-8.647-19.31-19.31 0-10.666 8.645-19.31 19.31-19.31h372.251c10.665 0 19.31 8.645 19.31 19.31 0.001 10.665-8.645 19.31-19.31 19.31z" p-id="5637"></path></svg>